<svg width="35" height="35" viewBox="0 0 35 35" fill="none" xmlns="http://www.w3.org/2000/svg">
<path fill-rule="evenodd" clip-rule="evenodd" d="M24.3036 2.93182C26.4015 2.80071 28.4702 3.52912 30.029 4.95681C31.4567 6.51561 32.1851 8.58431 32.0686 10.6967V24.3035C32.1997 26.4159 31.4567 28.4846 30.0436 30.0434C28.4848 31.471 26.4015 32.1995 24.3036 32.0683H10.6968C8.58437 32.1995 6.51566 31.471 4.95684 30.0434C3.52914 28.4846 2.80072 26.4159 2.93184 24.3035V10.6967C2.80072 8.58431 3.52914 6.51561 4.95684 4.95681C6.51566 3.52912 8.58437 2.80071 10.6968 2.93182H24.3036ZM16.0144 24.5657L25.8189 14.7321C26.7076 13.8289 26.7076 12.3721 25.8189 11.4834L23.925 9.58953C23.0218 8.6863 21.5649 8.6863 20.6617 9.58953L19.6856 10.5802C19.5399 10.7259 19.5399 10.9735 19.6856 11.1192C19.6856 11.1192 22.002 13.421 22.0457 13.4793C22.2059 13.6541 22.3079 13.8872 22.3079 14.1494C22.3079 14.6739 21.8854 15.1109 21.3464 15.1109C21.0987 15.1109 20.8656 15.0089 20.7054 14.8487L18.2725 12.4303C18.1559 12.3138 17.952 12.3138 17.8354 12.4303L10.8863 19.3794C10.4055 19.8602 10.1287 20.5012 10.1142 21.1859L10.0268 24.6385C10.0268 24.8279 10.085 25.0028 10.2162 25.1339C10.3473 25.265 10.5221 25.3378 10.7115 25.3378H14.1351C14.8343 25.3378 15.5045 25.061 16.0144 24.5657Z" fill="#00401A"/>
</svg>
