<svg width="186" height="180" viewBox="0 0 186 180" fill="none" xmlns="http://www.w3.org/2000/svg">
<ellipse cx="95.5012" cy="90.5" rx="70.5254" ry="70.5" fill="#D92D20"/>
<ellipse cx="178.497" cy="27.5" rx="7.5027" ry="7.5" fill="#D92D20"/>
<ellipse cx="20.0072" cy="10" rx="10.0036" ry="10" fill="#D92D20"/>
<ellipse cx="10.0035" cy="133" rx="5.0018" ry="5" fill="#D92D20"/>
<ellipse cx="165.559" cy="160.5" rx="2.5009" ry="2.5" fill="#D92D20"/>
<path fill-rule="evenodd" clip-rule="evenodd" d="M84.8527 65.9163H106.174C114.511 65.9163 120.093 71.7671 120.093 80.4696V100.557C120.093 109.232 114.511 115.083 106.174 115.083H84.8527C76.516 115.083 70.909 109.232 70.909 100.557V80.4696C70.909 71.7671 76.516 65.9163 84.8527 65.9163ZM89.0607 81.9393C88.4749 81.3536 87.5251 81.3536 86.9393 81.9393C86.3536 82.5251 86.3536 83.4749 86.9393 84.0607L93.3787 90.5L86.9393 96.9393C86.3536 97.5251 86.3536 98.4749 86.9393 99.0607C87.5251 99.6464 88.4749 99.6464 89.0607 99.0607L95.5 92.6213L101.939 99.0607C102.525 99.6464 103.475 99.6464 104.061 99.0607C104.646 98.4749 104.646 97.5251 104.061 96.9393L97.6213 90.5L104.061 84.0607C104.646 83.4749 104.646 82.5251 104.061 81.9393C103.475 81.3536 102.525 81.3536 101.939 81.9393L95.5 88.3787L89.0607 81.9393Z" fill="white"/>
<ellipse cx="106.538" cy="4.5" rx="2.5009" ry="2.5" fill="#D92D20"/>
<ellipse cx="62.5225" cy="176.5" rx="3.50126" ry="3.5" fill="#D92D20"/>
<circle cx="122.043" cy="171" r="1" fill="#D92D20"/>
<ellipse cx="170.561" cy="110.5" rx="2.5009" ry="2.5" fill="#D92D20"/>
<circle cx="1" cy="75" r="1" fill="#D92D20"/>
</svg>
