<svg width="40" height="40" viewBox="0 0 40 40" fill="none" xmlns="http://www.w3.org/2000/svg">
<path d="M25 37.9166H15C5.95004 37.9166 2.08337 34.05 2.08337 25V15C2.08337 5.94998 5.95004 2.08331 15 2.08331H25C34.05 2.08331 37.9167 5.94998 37.9167 15V25C37.9167 34.05 34.05 37.9166 25 37.9166ZM15 4.58331C7.31671 4.58331 4.58337 7.31665 4.58337 15V25C4.58337 32.6833 7.31671 35.4166 15 35.4166H25C32.6834 35.4166 35.4167 32.6833 35.4167 25V15C35.4167 7.31665 32.6834 4.58331 25 4.58331H15Z" fill="#00401A"/>
<path d="M15 17.9167C12.4666 17.9167 10.4166 15.8667 10.4166 13.3333C10.4166 10.8 12.4666 8.75 15 8.75C17.5333 8.75 19.5833 10.8 19.5833 13.3333C19.5833 15.8667 17.5333 17.9167 15 17.9167ZM15 11.25C13.85 11.25 12.9166 12.1833 12.9166 13.3333C12.9166 14.4833 13.85 15.4167 15 15.4167C16.15 15.4167 17.0833 14.4833 17.0833 13.3333C17.0833 12.1833 16.15 11.25 15 11.25Z" fill="#00401A"/>
<path d="M4.45007 32.8334C4.05007 32.8334 3.65007 32.6334 3.41673 32.2833C3.0334 31.7167 3.1834 30.9333 3.76673 30.55L11.9834 25.0333C13.7834 23.8167 16.2667 23.9667 17.9001 25.35L18.4501 25.8333C19.2834 26.55 20.7001 26.55 21.5167 25.8333L28.4501 19.8833C30.2167 18.3667 33.0001 18.3667 34.7834 19.8833L37.5001 22.2167C38.0167 22.6667 38.0834 23.45 37.6334 23.9833C37.1834 24.5 36.4001 24.5667 35.8667 24.1167L33.1501 21.7833C32.3167 21.0667 30.9001 21.0667 30.0667 21.7833L23.1334 27.7333C21.3667 29.25 18.5834 29.25 16.8001 27.7333L16.2501 27.25C15.4834 26.6 14.2167 26.5333 13.3667 27.1167L5.15007 32.6333C4.9334 32.7667 4.6834 32.8334 4.45007 32.8334Z" fill="#00401A"/>
</svg>
